<?xml version="1.0" standalone="no"?>
<!DOCTYPE svg PUBLIC "-//W3C//DTD SVG 20010904//EN"
 "http://www.w3.org/TR/2001/REC-SVG-20010904/DTD/svg10.dtd">
<svg version="1.0" xmlns="http://www.w3.org/2000/svg"
 width="150.000000pt" height="150.000000pt" viewBox="0 0 150.000000 150.000000"
 preserveAspectRatio="xMidYMid meet">
<metadata>
Created by potrace 1.14, written by Peter Selinger 2001-2017
</metadata>
<g transform="translate(0.000000,150.000000) scale(0.100000,-0.100000)"
fill="#000000" stroke="none">
<path d="M614 1490 c-22 -5 -76 -22 -120 -39 -261 -101 -436 -303 -482 -556
-9 -49 -9 -224 0 -285 9 -64 53 -180 94 -249 101 -169 292 -302 499 -345 66
-14 230 -15 290 -2 281 61 502 286 579 587 24 95 18 234 -14 347 -21 70 -44
117 -96 197 -60 93 -131 163 -229 229 -68 46 -188 98 -255 111 -54 11 -220 13
-266 5z"/>
</g>
</svg>
